<?xml version="1.0" encoding="UTF-8" standalone="no"?>
<!-- Created with Inkscape (http://www.inkscape.org/) -->

<svg
   width="178.18163mm"
   height="188.62531mm"
   viewBox="0 0 178.18163 188.62531"
   version="1.1"
   id="svg1"
   xml:space="preserve"
   inkscape:version="1.3 (0e150ed6c4, 2023-07-21)"
   sodipodi:docname="logo vitepress.svg"
   xmlns:inkscape="http://www.inkscape.org/namespaces/inkscape"
   xmlns:sodipodi="http://sodipodi.sourceforge.net/DTD/sodipodi-0.dtd"
   xmlns:xlink="http://www.w3.org/1999/xlink"
   xmlns="http://www.w3.org/2000/svg"
   xmlns:svg="http://www.w3.org/2000/svg"><sodipodi:namedview
     id="namedview1"
     pagecolor="#505050"
     bordercolor="#eeeeee"
     borderopacity="1"
     inkscape:showpageshadow="0"
     inkscape:pageopacity="0"
     inkscape:pagecheckerboard="0"
     inkscape:deskcolor="#505050"
     inkscape:document-units="mm"
     inkscape:zoom="0.28270377"
     inkscape:cx="114.96133"
     inkscape:cy="567.73209"
     inkscape:window-width="1920"
     inkscape:window-height="1009"
     inkscape:window-x="-8"
     inkscape:window-y="-8"
     inkscape:window-maximized="1"
     inkscape:current-layer="layer1" /><defs
     id="defs1"><linearGradient
       id="linearGradient7"
       inkscape:collect="always"><stop
         style="stop-color:#262626;stop-opacity:1;"
         offset="0"
         id="stop6" /><stop
         style="stop-color:#713704;stop-opacity:1;"
         offset="1"
         id="stop7" /></linearGradient><linearGradient
       id="linearGradient2"
       inkscape:collect="always"><stop
         style="stop-color:#f9d8b3;stop-opacity:1;"
         offset="0"
         id="stop2" /><stop
         style="stop-color:#f2b064;stop-opacity:1;"
         offset="1"
         id="stop3" /></linearGradient><linearGradient
       id="linearGradient12"
       inkscape:collect="always"><stop
         style="stop-color:#ef8843;stop-opacity:1;"
         offset="0"
         id="stop12" /><stop
         style="stop-color:#df6415;stop-opacity:1;"
         offset="1"
         id="stop13" /></linearGradient><linearGradient
       id="linearGradient10"
       inkscape:collect="always"><stop
         style="stop-color:#000000;stop-opacity:1;"
         offset="0"
         id="stop10" /><stop
         style="stop-color:#ffffff;stop-opacity:0;"
         offset="1"
         id="stop11" /></linearGradient><linearGradient
       inkscape:collect="always"
       xlink:href="#linearGradient10"
       id="linearGradient11"
       x1="86.51638"
       y1="119.37051"
       x2="93.02549"
       y2="145.19234"
       gradientUnits="userSpaceOnUse" /><linearGradient
       inkscape:collect="always"
       xlink:href="#linearGradient12"
       id="linearGradient13"
       x1="98.104218"
       y1="159.74925"
       x2="59.898399"
       y2="39.92942"
       gradientUnits="userSpaceOnUse" /><linearGradient
       inkscape:collect="always"
       xlink:href="#linearGradient10"
       id="linearGradient14"
       gradientUnits="userSpaceOnUse"
       x1="130.98489"
       y1="112.06407"
       x2="135.47842"
       y2="138.64174" /><linearGradient
       inkscape:collect="always"
       xlink:href="#linearGradient2"
       id="linearGradient3"
       x1="130.66965"
       y1="201.50414"
       x2="88.878883"
       y2="70.224251"
       gradientUnits="userSpaceOnUse" /><linearGradient
       inkscape:collect="always"
       xlink:href="#linearGradient7"
       id="linearGradient6"
       x1="40.711788"
       y1="66.917068"
       x2="145.06499"
       y2="204.02689"
       gradientUnits="userSpaceOnUse" /><linearGradient
       inkscape:collect="always"
       xlink:href="#linearGradient7"
       id="linearGradient4"
       gradientUnits="userSpaceOnUse"
       x1="40.711788"
       y1="66.917068"
       x2="145.06499"
       y2="204.02689" /><linearGradient
       inkscape:collect="always"
       xlink:href="#linearGradient7"
       id="linearGradient5"
       gradientUnits="userSpaceOnUse"
       x1="40.711788"
       y1="66.917068"
       x2="145.06499"
       y2="204.02689" /></defs><g
     inkscape:label="Calque 1"
     inkscape:groupmode="layer"
     id="layer1"
     style="display:inline"
     transform="translate(-11.845546,-24.970981)"><g
       id="g28"
       inkscape:export-filename="..\..\Users\thiba\Downloads\logo.svg"
       inkscape:export-xdpi="96"
       inkscape:export-ydpi="96"
       transform="translate(-10.294937,10.294934)"
       style="display:inline;opacity:1;fill:url(#linearGradient6);fill-opacity:1;stroke:#000000"><g
         id="g25"
         style="display:none;fill:url(#linearGradient4);fill-opacity:1;stroke:#000000" /><path
         id="ellipse28"
         style="display:inline;fill:url(#linearGradient5);fill-opacity:1;stroke:none;stroke-width:3.4;stroke-linecap:round;stroke-linejoin:round;paint-order:stroke fill markers"
         d="m 134.83492,108.85588 a 2.2491465,2.2192347 0 0 1 -2.24915,2.21924 2.2491465,2.2192347 0 0 1 -2.24915,-2.21924 2.2491465,2.2192347 0 0 1 2.24915,-2.21923 2.2491465,2.2192347 0 0 1 2.24915,2.21923 z m 2.23558,2.60935 c 0,3.36928 -3.42435,6.38309 -6.52603,6.38309 -3.66662,0 -6.46953,-3.01381 -6.46953,-5.70514 0,-3.36928 3.02889,-6.49608 6.69552,-6.49608 3.66662,0 6.30004,2.44886 6.30004,5.81813 z m -43.38345,32.31852 c 0.860844,2.72676 15.54913,10.25674 21.27159,-7.40566 8.14201,14.06678 23.38621,1.64145 19.71045,-6.15239 m -19.82438,5.46879 -9.45172,-6.83599 c 0,0 7.74575,-3.36564 16.74345,-5.01307 -0.34483,4.26291 -7.29173,11.84906 -7.29173,11.84906 z m 19.3992,-27.01514 a 2.1690829,2.221467 0 0 1 -2.16908,2.22147 2.1690829,2.221467 0 0 1 -2.16908,-2.22147 2.1690829,2.221467 0 0 1 2.16908,-2.22147 2.1690829,2.221467 0 0 1 2.16908,2.22147 z m -43.456853,7.26103 a 2.2491465,2.2192347 0 0 1 -2.249147,2.21923 2.2491465,2.2192347 0 0 1 -2.249146,-2.21923 2.2491465,2.2192347 0 0 1 2.249146,-2.21924 2.2491465,2.2192347 0 0 1 2.249147,2.21924 z m 2.548668,2.81806 c 10e-7,3.36928 -3.424351,6.38309 -6.526025,6.38309 -3.666627,0 -6.46953,-3.01381 -6.46953,-5.70514 10e-7,-3.36928 3.028884,-6.49608 6.695512,-6.49608 3.666627,0 6.300044,2.44886 6.300043,5.81813 z m 71.987055,1.06444 C 165.6932,149.18634 140.36626,173.5989 109.5941,172.99437 77.881483,172.37136 54.761473,149.17501 53.865417,119.82288 52.930905,89.211062 78.817749,66.979486 109.5941,66.651398 c 29.22058,-0.311503 55.41717,28.478253 55.72868,53.171482 z M 56.944922,101.5594 c 2.465434,-1.826334 4.495178,-7.27612 6.323311,-11.803522 -2.703572,-5.827194 -15.390485,-7.39945 -18.44299,0.316165 -3.052505,7.715615 7.054663,12.294927 12.119679,11.487357 z M 125.46345,70.724443 c 2.37082,0.721335 8.26347,2.458569 13.4661,6.607943 7.10801,-6.219199 7.2937,-20.207455 0.73646,-22.651531 -6.55724,-2.444076 -13.58161,5.518785 -14.20256,16.043588 z M 94.25092,51.143909 c 4.541351,-16.919026 40.28406,-40.534673 38.67311,-8.846319 34.75623,-10.796562 45.0052,23.537662 32.56305,27.112002 39.24921,33.117348 18.26569,45.298898 7.67159,45.664208 17.53505,56.98892 -5.84502,55.89299 -12.42066,53.70111 -15.70849,34.33948 -37.99263,21.91882 -37.99263,21.91882 -19.60516,26.05904 -46.151287,6.08856 -51.143905,-9.49816 C 43.472324,203.4797 33.974169,158.18081 43.107011,139.54981 13.881918,152.82287 18.630995,110.20295 36.531364,100.46125 -1.3493235e-6,88.771215 46.760146,57.354243 60.642065,59.91144 55.527674,57.841328 48.2214,19.848707 94.25092,51.143909 Z"
         inkscape:label="ombre" /></g><g
       id="g21"
       inkscape:export-filename="..\..\Users\thiba\Downloads\darklogo.svg"
       inkscape:export-xdpi="96"
       inkscape:export-ydpi="96"><path
         style="fill:url(#linearGradient13);fill-opacity:1;stroke:#000000;stroke-width:3.4;stroke-linecap:round;stroke-linejoin:round;stroke-dasharray:none;stroke-opacity:1;paint-order:stroke fill markers"
         d="m 94.25092,51.143909 c 4.541351,-16.919026 40.28406,-40.534673 38.67311,-8.846319 34.75623,-10.796562 45.0052,23.537662 32.56305,27.112002 39.24921,33.117348 18.26569,45.298898 7.67159,45.664208 17.53505,56.98892 -5.84502,55.89299 -12.42066,53.70111 -15.70849,34.33948 -37.99263,21.91882 -37.99263,21.91882 -19.60516,26.05904 -46.151287,6.08856 -51.143905,-9.49816 C 43.472324,203.4797 33.974169,158.18081 43.107011,139.54981 13.881918,152.82287 18.630995,110.20295 36.531364,100.46125 -1.3493235e-6,88.771215 46.760146,57.354243 60.642065,59.91144 55.527674,57.841328 48.2214,19.848707 94.25092,51.143909 Z"
         id="path1"
         sodipodi:nodetypes="ccccccccccc"
         inkscape:label="crinière"
         inkscape:export-filename="..\..\Users\thiba\Downloads\newlogo.svg"
         inkscape:export-xdpi="96"
         inkscape:export-ydpi="96" /><path
         style="fill:#f2b064;fill-opacity:1;stroke:#000000;stroke-width:3.4;stroke-linecap:round;stroke-linejoin:round;stroke-dasharray:none;stroke-opacity:1;paint-order:stroke fill markers"
         d="m 125.46345,70.724443 c 2.37082,0.721335 8.26347,2.458569 13.4661,6.607943 7.10801,-6.219199 7.2937,-20.207455 0.73646,-22.651531 -6.55724,-2.444076 -13.58161,5.518785 -14.20256,16.043588 z"
         id="path3"
         sodipodi:nodetypes="cccc" /><path
         style="fill:#f2b064;fill-opacity:1;stroke:#000000;stroke-width:3.4;stroke-linecap:round;stroke-linejoin:round;stroke-dasharray:none;stroke-opacity:1;paint-order:stroke fill markers"
         d="m 56.944922,101.5594 c 2.465434,-1.826334 4.495178,-7.27612 6.323311,-11.803522 -2.703572,-5.827194 -15.390485,-7.39945 -18.44299,0.316165 -3.052505,7.715615 7.054663,12.294927 12.119679,11.487357 z"
         id="path4"
         sodipodi:nodetypes="cczc" /><path
         id="path2"
         style="fill:url(#linearGradient3);fill-opacity:1;stroke:#000000;stroke-width:3.4;stroke-linecap:round;stroke-linejoin:round;stroke-dasharray:none;stroke-opacity:1;paint-order:stroke fill markers"
         d="M 165.32278,119.82288 C 165.6932,149.18634 140.36626,173.5989 109.5941,172.99437 77.881483,172.37136 54.761473,149.17501 53.865417,119.82288 52.930905,89.211062 78.817749,66.979486 109.5941,66.651398 c 29.22058,-0.311503 55.41717,28.478253 55.72868,53.171482 z"
         sodipodi:nodetypes="sssss" /><g
         id="g13"><path
           id="path7"
           style="opacity:1;fill:url(#linearGradient11);fill-opacity:0.7589;stroke:#000000;stroke-width:1;stroke-linecap:round;stroke-linejoin:round;stroke-dasharray:none;stroke-opacity:1;paint-order:stroke fill markers"
           d="m 93.335725,118.75844 c 10e-7,3.36928 -3.424351,6.38309 -6.526025,6.38309 -3.666627,0 -6.46953,-3.01381 -6.46953,-5.70514 10e-7,-3.36928 3.028884,-6.49608 6.695512,-6.49608 3.666627,0 6.300044,2.44886 6.300043,5.81813 z"
           sodipodi:nodetypes="sssss" /><ellipse
           style="opacity:1;fill:#ffffff;fill-opacity:0.7589;stroke:none;stroke-width:3.4;stroke-linecap:round;stroke-linejoin:round;stroke-dasharray:none;stroke-opacity:1;paint-order:stroke fill markers"
           id="ellipse7"
           cx="88.53791"
           cy="115.94038"
           rx="2.2491465"
           ry="2.2192347" /></g><ellipse
         style="fill:#ffffff;fill-opacity:0.7589;stroke:none;stroke-width:3.4;stroke-linecap:round;stroke-linejoin:round;stroke-dasharray:none;stroke-opacity:1;paint-order:stroke fill markers"
         id="ellipse9"
         cx="132.07483"
         cy="108.67935"
         rx="2.1690829"
         ry="2.221467" /><path
         style="fill:#ee5e47;fill-opacity:1;stroke:#000000;stroke-width:2.5;stroke-linecap:round;stroke-linejoin:round;stroke-dasharray:none;stroke-opacity:1;paint-order:stroke fill markers"
         d="m 114.84471,135.69449 -9.45172,-6.83599 c 0,0 7.74575,-3.36564 16.74345,-5.01307 -0.34483,4.26291 -7.29173,11.84906 -7.29173,11.84906 z"
         id="path9"
         sodipodi:nodetypes="cccc" /><path
         style="fill:none;fill-opacity:0.7589;stroke:#000000;stroke-width:1.5;stroke-linecap:round;stroke-linejoin:round;stroke-dasharray:none;stroke-opacity:1;paint-order:stroke fill markers"
         d="m 93.68705,143.78375 c 0.860844,2.72676 15.54913,10.25674 21.27159,-7.40566 8.14201,14.06678 23.38621,1.64145 19.71045,-6.15239"
         id="path10"
         sodipodi:nodetypes="ccc" /><path
         id="path13"
         style="fill:url(#linearGradient14);fill-opacity:0.7589;stroke:#000000;stroke-width:1;stroke-linecap:round;stroke-linejoin:round;stroke-dasharray:none;stroke-opacity:1;paint-order:stroke fill markers"
         d="m 137.0705,111.46523 c 0,3.36928 -3.42435,6.38309 -6.52603,6.38309 -3.66662,0 -6.46953,-3.01381 -6.46953,-5.70514 0,-3.36928 3.02889,-6.49608 6.69552,-6.49608 3.66662,0 6.30004,2.44886 6.30004,5.81813 z"
         sodipodi:nodetypes="sssss" /><ellipse
         style="fill:#ffffff;fill-opacity:0.7589;stroke:none;stroke-width:3.4;stroke-linecap:round;stroke-linejoin:round;stroke-dasharray:none;stroke-opacity:1;paint-order:stroke fill markers"
         id="ellipse13"
         cx="132.58577"
         cy="108.85588"
         rx="2.2491465"
         ry="2.2192347" /></g></g></svg>
